<svg xmlns="http://www.w3.org/2000/svg" viewBox="0 0 128 128" fill="none">
    <defs>
        <linearGradient id="chip" x1="20" y1="16" x2="108" y2="112" gradientUnits="userSpaceOnUse">
            <stop stop-color="#242424" />
            <stop offset="1" stop-color="#0D0D0D" />
        </linearGradient>
        <linearGradient id="coin" x1="40" y1="34" x2="91" y2="94" gradientUnits="userSpaceOnUse">
            <stop stop-color="#FFB347" />
            <stop offset="1" stop-color="#F7931A" />
        </linearGradient>
    </defs>
    <rect x="28" y="6" width="12" height="18" rx="4" fill="#F7931A" />
    <rect x="52" y="6" width="12" height="18" rx="4" fill="#F7931A" />
    <rect x="76" y="6" width="12" height="18" rx="4" fill="#F7931A" />
    <rect x="28" y="104" width="12" height="18" rx="4" fill="#F7931A" />
    <rect x="52" y="104" width="12" height="18" rx="4" fill="#F7931A" />
    <rect x="76" y="104" width="12" height="18" rx="4" fill="#F7931A" />
    <rect x="6" y="28" width="18" height="12" rx="4" fill="#F7931A" />
    <rect x="6" y="52" width="18" height="12" rx="4" fill="#F7931A" />
    <rect x="6" y="76" width="18" height="12" rx="4" fill="#F7931A" />
    <rect x="104" y="28" width="18" height="12" rx="4" fill="#F7931A" />
    <rect x="104" y="52" width="18" height="12" rx="4" fill="#F7931A" />
    <rect x="104" y="76" width="18" height="12" rx="4" fill="#F7931A" />
    <rect x="16" y="16" width="96" height="96" rx="28" fill="url(#chip)" />
    <rect x="20" y="20" width="88" height="88" rx="24" stroke="#3A3A3A" stroke-width="2" />
    <circle cx="64" cy="64" r="28" fill="url(#coin)" />
    <circle cx="64" cy="64" r="23" stroke="#FFD08A" stroke-width="2" opacity=".55" />
    <path
        d="M53 45v38M75 45v38M42 54h44M39 74h44"
        stroke="#171717"
        stroke-linecap="round"
        stroke-width="8"
    />
</svg>
