<svg width="1800" height="945" viewBox="0 0 1200 630" fill="none" xmlns="http://www.w3.org/2000/svg">
  <defs>
    <linearGradient id="bg" x1="90" y1="80" x2="1110" y2="550" gradientUnits="userSpaceOnUse">
      <stop stop-color="#14161A" />
      <stop offset="1" stop-color="#090A0D" />
    </linearGradient>
    <linearGradient id="panel" x1="130" y1="88" x2="1070" y2="542" gradientUnits="userSpaceOnUse">
      <stop stop-color="#1A1D22" stop-opacity="0.98" />
      <stop offset="1" stop-color="#101216" stop-opacity="0.96" />
    </linearGradient>
    <radialGradient id="glow" cx="0" cy="0" r="1" gradientUnits="userSpaceOnUse" gradientTransform="translate(1040 155) rotate(180) scale(360 340)">
      <stop stop-color="#FF7A18" stop-opacity="0.18" />
      <stop offset="1" stop-color="#FF7A18" stop-opacity="0" />
    </radialGradient>
    <radialGradient id="glow2" cx="0" cy="0" r="1" gradientUnits="userSpaceOnUse" gradientTransform="translate(205 510) rotate(-18) scale(430 360)">
      <stop stop-color="#FF7A18" stop-opacity="0.28" />
      <stop offset="1" stop-color="#FF7A18" stop-opacity="0" />
    </radialGradient>
    <linearGradient id="accent" x1="0" y1="0" x2="1200" y2="0" gradientUnits="userSpaceOnUse">
      <stop stop-color="#FF7A18" />
      <stop offset="1" stop-color="#FF9F57" />
    </linearGradient>
  </defs>

  <rect width="1200" height="630" fill="#090A0D" />
  <rect width="1200" height="630" fill="url(#bg)" />
  <rect width="1200" height="630" fill="url(#glow)" />
  <rect width="1200" height="630" fill="url(#glow2)" />
  <rect x="110" y="80" width="980" height="520" rx="28" fill="url(#panel)" stroke="rgba(255,255,255,0.12)" />
  <rect x="110" y="80" width="980" height="5" rx="2.5" fill="url(#accent)" />

  <rect x="160" y="130" width="235" height="46" rx="23" fill="#171A1F" stroke="rgba(255,255,255,0.16)" />
  <text x="277" y="160" text-anchor="middle" fill="#E8EAEE" font-family="sans-serif" font-size="18" font-weight="600" letter-spacing="3">ALTERNATIVE ROUTE</text>

  <text x="160" y="240" fill="#FF9F57" font-family="monospace" font-size="28" font-weight="700" letter-spacing="2.5">EXISTING UMBREL SETUP</text>

  <text x="160" y="325" fill="#F7F8FA" font-family="monospace" font-size="52" font-weight="700" letter-spacing="-2">Umbrel alternative</text>
  <text x="160" y="390" fill="#F7F8FA" font-family="monospace" font-size="52" font-weight="700" letter-spacing="-2">with port forwarding</text>

  <text x="160" y="465" fill="#C9CED6" font-family="sans-serif" font-size="31" font-weight="500">Reuse your Umbrel box, install Bitcoin Knots and DATUM,</text>
  <text x="160" y="505" fill="#C9CED6" font-family="sans-serif" font-size="31" font-weight="500">then forward port 23334 so Braiins can reach it</text>

  <g>
    <rect x="160" y="545" width="110" height="28" rx="14" fill="#1A1D22" stroke="rgba(255,255,255,0.12)" />
    <text x="215" y="563" text-anchor="middle" fill="#FF9F57" font-family="monospace" font-size="14" font-weight="700" letter-spacing="1.5">UMBREL</text>

    <rect x="282" y="545" width="142" height="28" rx="14" fill="#1A1D22" stroke="rgba(255,255,255,0.12)" />
    <text x="353" y="563" text-anchor="middle" fill="#FF9F57" font-family="monospace" font-size="14" font-weight="700" letter-spacing="1.5">PORT 23334</text>

    <rect x="436" y="545" width="112" height="28" rx="14" fill="#1A1D22" stroke="rgba(255,255,255,0.12)" />
    <text x="492" y="563" text-anchor="middle" fill="#FF9F57" font-family="monospace" font-size="14" font-weight="700" letter-spacing="1.5">BRAIINS</text>
  </g>

  <g opacity="0.95">
    <rect x="840" y="230" width="184" height="88" rx="20" fill="#14171B" stroke="rgba(255,255,255,0.12)" />
    <rect x="875" y="257" width="114" height="12" rx="6" fill="#FF9F57" />
    <rect x="892" y="285" width="80" height="8" rx="4" fill="#FFFFFF" fill-opacity="0.18" />

    <circle cx="812" cy="435" r="34" fill="#13161A" stroke="rgba(255,255,255,0.18)" stroke-width="4" />
    <circle cx="812" cy="435" r="9" fill="#E8EAEE" fill-opacity="0.82" />

    <circle cx="1048" cy="435" r="34" fill="#13161A" stroke="rgba(255,255,255,0.18)" stroke-width="4" />
    <circle cx="1048" cy="435" r="9" fill="#E8EAEE" fill-opacity="0.82" />

    <circle cx="930" cy="515" r="42" fill="#13161A" stroke="#FF9F57" stroke-width="4" />
    <circle cx="930" cy="515" r="12" fill="#FF9F57" />

    <path d="M855 407L900 328" stroke="#FF9F57" stroke-width="5" stroke-linecap="round" />
    <path d="M1005 407L960 328" stroke="#FF9F57" stroke-width="5" stroke-linecap="round" />
    <path d="M840 435H1020" stroke="#FFFFFF" stroke-opacity="0.22" stroke-width="5" stroke-linecap="round" />
    <path d="M930 473V557" stroke="#FFFFFF" stroke-opacity="0.14" stroke-width="5" stroke-linecap="round" />
  </g>

  <text x="160" y="592" fill="#8F98A6" font-family="sans-serif" font-size="16" font-weight="600" letter-spacing="3">RENTSOMEHASH.COM</text>
  <text x="1040" y="592" text-anchor="end" fill="#AEB5C0" font-family="sans-serif" font-size="16" font-weight="500">Guide 3 of 3</text>
</svg>
